# xmcd
#
# Track frame offsets: 
#        150
#        39657
#        71675
#        96700
#        129710
#        142387
#        172695
#        212137
#        245352
#
# Disc length: 3864 seconds
#
# Revision: 2
# Processed by: cddbd v1.5.2PL0 Copyright (c) Steve Scherf et al.
# Submitted via: ExactAudioCopy v0.95b3
#
DISCID=8d0f1609
DTITLE=Maria Schneider Jazz Orchestra - Live At The Jazz Standard - Da
DTITLE=ys Of Wine And Roses
DYEAR=2000
DGENRE=Jazz
TTITLE0=Lately
TTITLE1=The Willow
TTITLE2=That Old Black Magic
TTITLE3=My Ideal
TTITLE4=Last Season
TTITLE5=Começar De Novo
TTITLE6=Days Of Wine And Roses
TTITLE7=Over The Rainbow
TTITLE8=Bird Count
EXTD=YEAR: 2005
EXTT0=
EXTT1=
EXTT2=
EXTT3=
EXTT4=
EXTT5=
EXTT6=
EXTT7=
EXTT8=
PLAYORDER=
